<svg height="72.20237687259056" width="236.40441221057466" style="width: 236.404px; height: 72.2024px; position: absolute; top: 50%; left: 50%; transform: translate(-50%, -50%) scale(1); z-index: 0; cursor: pointer;"><defs id="SvgjsDefs1001"><linearGradient id="SvgjsLinearGradient1011"><stop id="SvgjsStop1012" stop-color="#fbb040" offset="0"></stop><stop id="SvgjsStop1013" stop-color="#f9ed32" offset="1"></stop></linearGradient></defs><g id="SvgjsG1007" featurekey="G09qjj-0" transform="matrix(0.7220261925198869,0,0,0.7220261925198869,0.10146538696171563,-0.10237465399359745)" fill="#f8b500"><g xmlns="http://www.w3.org/2000/svg"><g><path fill-rule="evenodd" clip-rule="evenodd" d="M88.025,17.844c2.893,3.423,5.219,7.051,7.042,10.994    c5.108,11.042,6.102,22.465,3.127,34.254c-0.235,0.932-0.589,1.306-1.632,1.303c-11.268-0.043-22.537-0.027-33.807-0.027    c-0.4,0-0.802,0-1.475,0C70.246,48.771,79.092,33.384,88.025,17.844z"></path><path fill-rule="evenodd" clip-rule="evenodd" d="M37.921,1.625c6.055,10.503,12.078,20.951,18.178,31.534    c-17.835,0-35.496,0-53.313,0c2.409-6.632,6.05-12.396,10.841-17.448C20.793,8.158,30.086,3.33,37.921,1.625z"></path><path fill-rule="evenodd" clip-rule="evenodd" d="M41.001,0.988c14.037-2.855,32.475,1.396,44.901,14.556    c-6.031,10.497-12.08,21.017-18.226,31.709C58.739,31.751,49.88,16.389,41.001,0.988z"></path><path fill-rule="evenodd" clip-rule="evenodd" d="M11.711,82.418C1.103,70.241-2.884,52.072,1.799,36.284    c12.048,0,24.116,0,36.367,0C29.326,51.7,20.546,67.009,11.711,82.418z"></path><path fill-rule="evenodd" clip-rule="evenodd" d="M43.453,67.402c17.843,0,35.522,0,53.451,0    c-0.921,1.987-1.677,3.888-2.645,5.678c-7.025,13.01-17.65,21.536-31.914,25.507c-0.621,0.173-0.986,0.173-1.354-0.471    c-5.725-10.039-11.478-20.062-17.224-30.089C43.679,67.87,43.606,67.707,43.453,67.402z"></path><path fill-rule="evenodd" clip-rule="evenodd" d="M58.337,99.44c-7.263,1.209-14.274,0.836-21.214-0.971    c-8.759-2.279-18.357-7.924-23.316-13.707c5.964-10.399,11.946-20.831,18.055-31.483C40.715,68.717,49.485,84.006,58.337,99.44z"></path></g></g></g></svg>